<?xml version="1.0" standalone="no"?><svg xmlns="http://www.w3.org/2000/svg" viewBox="0 0 1440 320"><path fill="#444444" fill-opacity="1" d="M0,288L40,288C80,288,160,288,240,272C320,256,400,224,480,202.7C560,181,640,171,720,181.3C800,192,880,224,960,250.7C1040,277,1120,299,1200,277.3C1280,256,1360,192,1400,160L1440,128L1440,320L1400,320C1360,320,1280,320,1200,320C1120,320,1040,320,960,320C880,320,800,320,720,320C640,320,560,320,480,320C400,320,320,320,240,320C160,320,80,320,40,320L0,320Z"></path></svg>